<svg width="324" height="92" viewBox="0 0 324 92" fill="none" xmlns="http://www.w3.org/2000/svg">
<path d="M16.2812 57.8154L17.2041 57.7275C18.1709 57.5811 19.1523 57.4492 20.1484 57.332C21.1738 57.1855 22.2285 57.0098 23.3125 56.8047C25.9199 56.3652 27.9854 55.8965 29.5088 55.3984C31.4424 47.4004 32.4092 39.0215 32.4092 30.2617C32.4092 26.9805 32.248 24.1387 31.9258 21.7363C23.957 20.2422 13.8496 19.4951 1.60352 19.4951H0.416992L2.39453 8.86035H3.31738C14.4502 8.86035 24.1328 9.75391 32.3652 11.541C33.9473 11.8633 35.1191 12.1709 35.8809 12.4639C36.6719 12.7568 37.4482 13.2549 38.21 13.958C38.9717 14.6611 39.7188 15.4375 40.4512 16.2871C42.1504 18.3672 43.0586 19.9492 43.1758 21.0332C43.4102 23.2012 43.5273 25.6328 43.5273 28.3281C43.5273 31.0234 43.4102 33.8652 43.1758 36.8535C42.9414 39.8418 42.5898 42.7861 42.1211 45.6865C41.1543 51.9854 39.8506 57.1416 38.21 61.1553C37.8584 62.0635 37.4629 62.7227 37.0234 63.1328C36.6133 63.5137 35.7637 63.9238 34.4746 64.3633C33.1855 64.7734 31.5889 65.1689 29.6846 65.5498C27.8096 65.9307 25.7148 66.2529 23.4004 66.5166C19.0938 67.0146 13.3516 67.4395 6.17383 67.791V25.6914L16.9844 23.3623L17.1602 32.8105L16.2812 57.8154ZM65.8076 0.862305C66.1299 2.00488 66.291 3.29395 66.291 4.72949C66.291 6.13574 66.2471 7.33691 66.1592 8.33301C66.0713 9.2998 65.9688 10.208 65.8516 11.0576C65.5586 12.9033 65.2217 14.1631 64.8408 14.8369L54.7334 14.3975C55.2314 11.8193 55.4805 7.70313 55.4805 2.04883L65.8076 0.862305ZM65.4561 23.0107C65.6025 26.0283 65.6758 28.5625 65.6758 30.6133C65.6758 32.6641 65.6318 35.0664 65.5439 37.8203L64.5332 67L55.1729 67.791L54.2939 24.417L65.4561 23.0107ZM77.585 24.9883L86.9453 23.8018L88.4834 30.4814L96.2178 23.8018H107.028C107.585 23.8018 108.361 24.2266 109.357 25.0762C111.027 26.4531 111.862 27.6836 111.862 28.7676L110.324 67.0879L100.524 67.8789L100.349 33.9531C99.9971 33.8359 99.5137 33.7773 98.8984 33.7773C98.2832 33.7773 97.7119 33.8066 97.1846 33.8652C96.6865 33.9238 96.1445 34.0117 95.5586 34.1289C94.1816 34.3633 93.0537 34.6416 92.1748 34.9639L88.9229 36.1504L87.7363 66.6484L78.376 67.3516L77.585 24.9883ZM135.373 57.7275C139.24 57.7275 142.272 57.5811 144.47 57.2881L144.294 38.5674L154.094 36.7656C154.211 42.4199 154.299 47.2539 154.357 51.2676C154.445 55.252 154.519 58.6064 154.577 61.3311C154.636 64.0557 154.68 66.2236 154.709 67.835L154.797 71.5703C154.797 72.4199 154.797 72.9766 154.797 73.2402V73.7676C154.797 75.2617 153.684 76.7998 151.457 78.3818C144.66 83.1572 137.731 87.4053 130.671 91.126L125.31 81.502C134.89 77.0195 141.555 73.6943 145.305 71.5264L144.646 61.5068L138.361 67H131.066C128.986 67 127.609 66.2969 126.936 64.8906L126.32 63.5723C123.654 57.1562 122.321 48.9531 122.321 38.9629C122.321 33.25 122.746 29.6465 123.596 28.1523C123.918 27.5664 124.87 27.0391 126.452 26.5703C128.063 26.0723 130.07 25.5449 132.473 24.9883C134.904 24.4023 137.365 23.8604 139.855 23.3623C142.346 22.8643 144.836 22.3955 147.326 21.9561L154.577 20.6377L156.73 30.7451L142.888 32.8984C137.79 33.7188 134.626 34.3486 133.396 34.7881C133.103 35.96 132.956 37.5859 132.956 39.666C132.956 47.166 133.762 53.1865 135.373 57.7275ZM187.58 11.6289L198.654 9.87109V33.9531L197.292 55.3984C199.548 56.2773 202.595 56.9805 206.433 57.5078C210.271 58.0059 212.585 58.3135 213.376 58.4307L210.871 68.1865C207.736 67.7764 205.202 67.3955 203.269 67.0439L198.127 66.0771C192.824 65.0518 189.309 64.1289 187.58 63.3086V11.6289ZM232.185 0.862305C232.507 2.00488 232.668 3.29395 232.668 4.72949C232.668 6.13574 232.624 7.33691 232.536 8.33301C232.448 9.2998 232.346 10.208 232.229 11.0576C231.936 12.9033 231.599 14.1631 231.218 14.8369L221.11 14.3975C221.608 11.8193 221.857 7.70313 221.857 2.04883L232.185 0.862305ZM231.833 23.0107C231.979 26.0283 232.053 28.5625 232.053 30.6133C232.053 32.6641 232.009 35.0664 231.921 37.8203L230.91 67L221.55 67.791L220.671 24.417L231.833 23.0107ZM243.962 24.9883L253.322 23.8018L254.86 30.4814L262.595 23.8018H273.405C273.962 23.8018 274.738 24.2266 275.734 25.0762C277.404 26.4531 278.239 27.6836 278.239 28.7676L276.701 67.0879L266.901 67.8789L266.726 33.9531C266.374 33.8359 265.891 33.7773 265.275 33.7773C264.66 33.7773 264.089 33.8066 263.562 33.8652C263.063 33.9238 262.521 34.0117 261.936 34.1289C260.559 34.3633 259.431 34.6416 258.552 34.9639L255.3 36.1504L254.113 66.6484L244.753 67.3516L243.962 24.9883ZM301.75 57.7275C305.617 57.7275 308.649 57.5811 310.847 57.2881L310.671 38.5674L320.471 36.7656C320.588 42.4199 320.676 47.2539 320.734 51.2676C320.822 55.252 320.896 58.6064 320.954 61.3311C321.013 64.0557 321.057 66.2236 321.086 67.835L321.174 71.5703C321.174 72.4199 321.174 72.9766 321.174 73.2402V73.7676C321.174 75.2617 320.061 76.7998 317.834 78.3818C311.037 83.1572 304.108 87.4053 297.048 91.126L291.687 81.502C301.267 77.0195 307.932 73.6943 311.682 71.5264L311.022 61.5068L304.738 67H297.443C295.363 67 293.986 66.2969 293.312 64.8906L292.697 63.5723C290.031 57.1562 288.698 48.9531 288.698 38.9629C288.698 33.25 289.123 29.6465 289.973 28.1523C290.295 27.5664 291.247 27.0391 292.829 26.5703C294.44 26.0723 296.447 25.5449 298.85 24.9883C301.281 24.4023 303.742 23.8604 306.232 23.3623C308.723 22.8643 311.213 22.3955 313.703 21.9561L320.954 20.6377L323.107 30.7451L309.265 32.8984C304.167 33.7188 301.003 34.3486 299.772 34.7881C299.479 35.96 299.333 37.5859 299.333 39.666C299.333 47.166 300.139 53.1865 301.75 57.7275Z" fill="white"/>
</svg>
